<?xml version="1.0" standalone="no"?>
<!DOCTYPE svg PUBLIC "-//W3C//DTD SVG 20010904//EN"
 "http://www.w3.org/TR/2001/REC-SVG-20010904/DTD/svg10.dtd">
<svg version="1.0" xmlns="http://www.w3.org/2000/svg"
 width="700.000000pt" height="700.000000pt" viewBox="0 0 700.000000 700.000000"
 preserveAspectRatio="xMidYMid meet">
<metadata>
Created by potrace 1.11, written by Peter Selinger 2001-2013
</metadata>
<g transform="translate(0.000000,700.000000) scale(0.100000,-0.100000)"
fill="#000000" stroke="none">
<path d="M3703 6972 c-129 -46 -247 -181 -353 -405 -75 -156 -143 -378 -156
-507 -3 -25 -7 -61 -9 -80 -6 -46 -6 -290 0 -360 9 -112 45 -349 76 -490 5
-25 11 -54 14 -65 2 -11 13 -65 25 -120 l21 -100 -23 -18 c-108 -87 -443 -422
-553 -552 -284 -337 -458 -677 -514 -1010 -20 -120 -25 -348 -10 -431 31 -167
66 -278 126 -398 110 -221 294 -426 508 -567 125 -82 336 -179 425 -195 14 -3
48 -12 75 -20 28 -8 73 -17 100 -20 28 -3 60 -7 73 -10 33 -7 248 -6 302 2 25
3 73 12 108 19 34 7 62 9 62 5 0 -4 9 -49 20 -101 12 -52 29 -134 39 -184 10
-49 31 -146 45 -215 40 -186 47 -277 34 -415 -28 -295 -163 -505 -369 -570
-206 -65 -439 -49 -556 39 -59 44 -59 51 2 49 65 -1 167 32 232 76 144 98 210
302 153 472 -88 260 -386 366 -612 216 -113 -75 -178 -192 -184 -332 -12 -256
185 -537 453 -648 76 -31 81 -32 253 -34 152 -3 185 0 250 18 81 23 193 75
249 117 227 170 334 483 285 834 -10 75 -105 534 -143 690 -9 40 -7 44 44 68
158 75 334 257 436 450 101 190 142 356 142 575 1 243 -72 418 -250 601 -135
139 -267 225 -419 272 -107 33 -239 46 -328 32 -30 -4 -49 -3 -54 4 -7 9 -30
105 -48 201 -2 11 -26 125 -54 254 -28 129 -49 240 -46 246 2 7 42 59 88 116
334 416 525 806 604 1234 37 197 39 463 5 641 -44 230 -141 438 -251 537 -94
86 -214 116 -317 79z m302 -514 c27 -25 59 -106 69 -178 11 -80 7 -223 -9
-310 -42 -224 -187 -552 -311 -702 -59 -71 -307 -309 -314 -301 -10 10 -67
307 -77 398 -41 394 65 754 285 970 127 124 291 180 357 123z m-539 -2291 c4
-23 8 -44 9 -47 2 -9 16 -74 35 -165 11 -49 31 -145 46 -213 14 -68 25 -124
23 -126 -2 -1 -33 -15 -69 -31 -320 -140 -561 -486 -555 -797 6 -283 166 -500
480 -649 55 -26 114 -51 130 -54 l30 -6 -40 33 c-75 62 -167 153 -202 201 -46
63 -63 129 -67 262 -9 271 85 455 279 549 103 51 107 50 122 -8 7 -28 15 -61
17 -75 3 -15 7 -37 10 -51 4 -14 8 -34 10 -45 2 -11 13 -63 24 -115 12 -52 24
-108 27 -125 3 -16 8 -39 10 -50 18 -81 94 -441 120 -565 2 -8 15 -70 29 -138
14 -67 26 -124 26 -126 0 -6 -62 -21 -145 -36 -53 -9 -296 -6 -355 5 -265 49
-485 182 -643 389 -66 86 -75 100 -120 186 -152 288 -167 648 -39 918 27 57
81 152 92 162 3 3 23 28 45 55 21 28 46 57 55 65 8 8 35 38 60 65 51 57 227
248 280 305 34 37 58 63 189 208 35 39 68 69 72 67 4 -3 11 -24 15 -48z m513
-1003 c267 -65 460 -277 491 -537 25 -211 -63 -493 -192 -615 -85 -80 -160
-133 -173 -120 -3 2 -9 27 -15 54 -5 27 -16 78 -24 114 -8 36 -40 182 -71 325
-31 143 -67 312 -81 375 -14 63 -27 126 -30 140 -11 54 -55 256 -59 268 -6 17
74 16 154 -4z"/>
</g>
</svg>
